PathFileType	4	(X/Y/Z)	C:\Users\Tech_3\Documents\Nikita\PSYC9080\walk1.trc
DataRate	CameraRate	NumFrames	NumMarkers	Units	OrigDataRate	OrigDataStartFrame	OrigNumFrames
120.00	120.00	      24	16	mm	120.00	1261	      2520
Frame#	Time	R_1M			R_5M			R_CALC			R_MAL			R_KNEE			R_GT			R_ASIS			R_PSIS			L_1M			L_5M			L_CALC			L_MAL			L_KNEE			L_GT			L_ASIS			L_PSIS			
		X1	Y1	Z1	X2	Y2	Z2	X3	Y3	Z3	X4	Y4	Z4	X5	Y5	Z5	X6	Y6	Z6	X7	Y7	Z7	X8	Y8	Z8	X9	Y9	Z9	X10	Y10	Z10	X11	Y11	Z11	X12	Y12	Z12	X13	Y13	Z13	X14	Y14	Z14	X15	Y15	Z15	X16	Y16	Z16	

1261	10.500	230.01637	66.41885	52.22047	124.96522	72.26089	33.06016	178.47873	224.96646	-65.46360	124.19691	205.11905	44.96252	110.47238	454.22797	326.96756	77.47564	833.99750	375.68726	160.51782	886.88971	476.79269	228.60945	962.16492	253.20346	279.41736	62.84016	646.49207	373.76535	63.60586	636.97931	316.20648	27.71196	446.84564	367.98544	101.57140	519.20758	377.04190	508.95920	523.37616	452.39154	821.94110	444.97055	353.28058	909.46014	497.29572	304.46838	959.42651	255.00557	
1262	10.508	229.47179	70.80696	51.06614	125.51418	78.17801	31.11873	179.42833	237.98473	-56.41818	124.19514	210.57780	50.43557	109.64230	453.93567	336.41995	78.51354	834.40997	377.22696	162.39262	888.40210	477.54968	229.09200	962.54150	253.56842	279.62756	62.13869	637.41199	373.72797	63.38981	628.05139	316.41748	27.78058	437.62506	367.79614	101.44500	510.21411	377.73865	508.93222	519.25812	454.79099	823.19141	445.45844	355.17627	911.13354	497.67844	304.77240	960.46826	255.37819	
1263	10.517	228.82816	75.40697	51.49859	126.30962	84.27473	30.44361	180.38535	249.27390	-46.04828	124.50943	216.22015	56.80437	108.80420	454.03827	346.16498	80.27843	835.14063	378.65067	164.21425	889.98688	477.91513	229.83102	963.22565	253.78825	279.42075	61.52016	628.43201	373.68555	63.02238	619.07379	316.16855	27.83299	428.33057	367.61798	101.35822	501.32516	378.88083	508.68961	514.84167	455.84360	824.54901	445.64688	357.17062	913.30463	497.70685	305.50806	961.72150	255.72456	
1264	10.525	228.64394	79.66717	53.36108	126.92719	90.24676	30.55157	181.72539	259.50021	-35.57445	124.81174	221.52348	63.47354	108.42475	454.63504	355.97214	81.15507	836.13110	379.85248	165.85783	891.46692	477.63681	230.90146	964.03522	253.85049	279.72101	61.03215	619.51990	373.77856	62.94073	609.63165	316.01224	27.98938	419.09793	367.28232	101.49884	492.30917	380.05225	507.99628	509.46503	456.78229	825.50024	445.70596	358.59396	914.84613	497.94049	306.34747	962.95355	255.93483	
1265	10.533	228.31033	83.97803	56.45319	127.71760	95.99837	32.31170	184.45357	267.45834	-25.80368	125.36863	227.09557	70.08538	107.58187	455.79581	365.96680	82.10726	837.40662	380.59927	167.39508	893.10657	477.12186	231.92969	964.91022	253.74908	279.57217	60.61638	610.46143	373.52103	62.59274	600.72363	316.02637	27.96119	409.91513	366.80936	101.42290	483.50620	380.72296	507.18671	503.84958	457.41510	826.29553	445.70462	360.08408	917.05859	497.53430	307.45712	964.07135	256.06027	
1266	10.542	228.65709	88.07217	63.71999	127.70736	101.41505	37.70860	187.25142	272.48724	-18.73663	126.09314	232.19922	76.62657	107.28469	457.21207	375.84158	82.92682	839.09668	381.06799	167.84128	895.46368	478.47000	233.21120	965.93890	253.50613	279.20575	60.24113	601.61517	373.49719	62.38146	591.91449	316.22812	27.91584	400.74707	366.55618	101.46997	474.64819	381.27600	506.24768	497.61014	459.09018	827.06482	446.05005	360.99136	918.28650	497.50018	308.75702	965.41937	256.07379	
1267	10.550	228.85497	92.72574	74.50066	128.10370	106.24859	46.85579	189.14685	275.91003	-12.26326	127.01696	237.09274	83.68970	106.92485	458.93805	385.99771	84.24420	840.84058	381.24060	168.53954	897.58105	478.25241	235.11758	967.21979	253.28029	279.46320	59.95374	592.67908	373.49271	62.28229	582.78131	316.38260	27.99101	391.81091	366.44675	101.32246	465.94855	382.34494	505.51871	491.65891	459.78546	827.23480	445.52640	361.99005	919.10779	497.33154	310.18204	966.84491	256.07074	
1268	10.558	228.71123	96.42347	86.16075	128.56306	109.78510	58.67694	191.24561	276.79395	-5.20649	128.47141	240.81567	92.33586	106.86248	460.69666	395.68869	85.40884	842.69928	381.34943	169.06593	899.66528	478.27243	236.57700	968.57159	252.90724	279.22397	59.73665	583.77460	373.69647	61.93818	574.02576	316.10403	28.19065	382.57913	366.82520	101.57346	457.44785	383.57568	505.20230	485.77863	460.48416	827.53821	445.18588	362.83536	919.63281	497.17987	312.14584	968.32446	256.10556	
1269	10.567	230.42310	98.85296	99.83424	129.33531	112.38239	71.94703	192.00336	277.10123	2.41313	129.81496	243.32550	101.79066	106.46114	462.99518	405.25214	85.81906	844.64374	381.09985	169.70190	901.92352	477.52411	238.48546	970.04108	252.70233	279.66608	59.46988	574.81586	373.77646	61.72820	565.17426	316.44327	28.17867	373.75769	366.57312	101.68838	448.68253	384.38727	504.96609	479.77060	461.65698	827.75702	443.97903	363.61749	920.46942	497.13290	313.60553	969.86487	255.97693	
1270	10.575	229.90462	100.77498	113.31290	130.04179	113.88484	86.37571	192.73277	276.18051	10.69983	131.11555	244.67198	112.21739	106.71304	465.46582	414.68930	86.55885	846.73309	381.08325	170.47546	903.99023	476.85904	240.05908	971.63513	252.26338	279.75113	59.34488	565.93958	373.90216	61.50116	556.10297	316.31738	28.25180	364.45328	366.74005	101.64230	439.94516	385.42166	505.00220	473.54007	462.32425	827.95660	443.10458	364.14502	921.06885	496.96109	315.03098	971.61420	255.84637	
1271	10.583	230.96402	102.02394	128.51123	130.55409	114.47715	101.31379	193.84183	274.04129	19.93769	132.38939	245.22585	123.26740	107.09719	468.10992	423.89569	87.46307	848.86786	380.97119	170.85246	906.41595	476.76163	241.50604	973.40753	251.82884	279.85306	59.23999	557.06885	374.16266	61.32270	547.20020	316.39893	28.42717	355.61032	366.84488	101.79203	431.39740	386.77246	505.04318	467.42859	463.32559	828.02051	440.57153	364.63016	921.71948	496.58435	316.65555	973.23407	255.51198	
1272	10.592	231.62018	102.49378	144.46680	131.56564	114.19366	116.88258	195.53535	270.27158	29.88216	133.56676	244.90697	134.74669	107.65381	471.24988	433.02173	88.15250	850.88477	380.99161	171.02676	909.64001	479.13162	242.92867	975.10693	251.41496	279.81931	59.26403	548.27576	374.16513	60.96081	538.36884	316.24252	28.81282	346.72736	366.80954	102.09840	422.71259	387.55698	505.04153	461.36176	464.20193	828.71503	438.29797	365.20227	922.33490	496.22858	317.84177	975.18683	255.32719	
1273	10.600	232.61644	102.32482	161.46336	132.23190	113.30420	133.19257	197.18030	265.69260	40.39505	134.71022	243.90138	146.54279	108.27352	474.30573	441.90466	88.97265	853.08801	381.20651	172.05823	911.50696	477.55652	243.95877	976.85834	251.05049	279.74881	59.22338	539.60870	374.36237	60.76058	529.71814	316.94879	28.72610	337.79755	366.91141	102.27339	414.15485	388.69623	505.17450	455.25668	465.13171	829.05176	435.41464	366.41382	923.16681	495.64508	318.52069	976.86090	255.03491	
1274	10.608	233.16832	101.73354	179.34024	132.78162	111.93566	149.96948	199.53012	259.87115	51.43544	136.14746	242.30952	158.73965	108.93040	477.30603	450.52045	89.73203	855.09912	381.59644	173.15628	913.49390	476.54294	244.57242	978.51782	250.65163	279.89551	58.99823	530.83813	374.18576	60.51921	520.64728	316.05429	29.22180	328.67459	366.88486	102.58357	405.35501	389.48212	505.08755	449.31772	466.02652	829.42065	433.07925	367.55807	924.19421	494.76343	319.25574	978.50415	254.56505	
1275	10.617	234.19551	100.49789	197.51312	133.09081	110.26232	167.64140	200.48152	253.17606	62.78025	137.18118	239.83572	171.21918	110.18608	480.27008	458.98660	90.33140	857.26697	382.22849	174.41045	915.20483	476.23651	244.70644	979.98230	249.98698	279.97745	58.95116	521.94592	374.35831	60.37578	512.08118	316.32477	29.34750	319.92682	366.84402	102.95228	396.77069	390.29227	505.11539	443.17410	466.51337	830.04163	431.59109	368.30142	924.90015	493.58258	319.47278	980.10992	253.99425	
1276	10.625	234.43210	98.42966	216.75591	133.32779	108.00678	186.10056	202.77303	245.38530	75.16226	138.72818	236.81494	184.46390	111.38728	483.33188	467.20789	90.66245	859.23938	382.77228	175.58456	917.29926	476.03802	244.58430	981.43036	249.25359	279.93689	58.87340	513.40759	374.28696	60.10062	503.04996	316.49060	29.55980	311.06943	366.84293	103.09590	387.68076	390.99615	505.08820	437.19888	467.00162	830.41583	429.14059	369.86029	925.65472	492.95505	319.35074	981.41364	253.24127	
1277	10.633	233.62712	96.15778	235.75522	133.98140	105.26820	205.04770	204.49860	236.98518	87.81400	140.03044	233.09744	197.84738	112.73264	486.80374	474.99222	90.90243	861.20331	383.40399	177.42274	918.83521	475.74631	244.35864	982.45337	248.49403	279.67764	58.76620	504.51910	374.37711	59.96383	494.30106	315.11478	29.42060	302.43634	366.64407	103.34864	379.45859	391.42740	504.92542	431.32178	467.65005	830.67700	426.46533	370.77670	925.13531	490.67499	319.28641	982.34827	252.44362	
1278	10.642	233.53638	93.50098	255.85756	133.55109	102.56898	224.32083	206.39861	227.35768	101.24155	141.42838	229.01515	211.70088	114.24641	490.02786	482.35693	91.40959	862.89301	384.29355	178.94991	920.07727	475.49146	244.03883	983.24683	247.83275	279.80276	58.41932	495.82416	374.51941	59.85755	485.55469	314.57217	29.74156	293.57269	366.42914	103.66827	370.53183	391.73486	504.72345	425.22623	468.57153	830.82935	424.13882	372.54047	925.87024	489.22943	318.87921	982.96619	251.41679	
1279	10.650	233.76706	90.87583	276.23431	133.45840	99.67847	244.28508	207.97412	217.09325	115.27335	142.52136	224.38890	225.77806	115.85168	493.10907	489.45221	90.96833	864.52338	384.72794	180.46538	921.90900	474.91785	243.27621	983.79858	246.84912	279.79800	58.34057	487.11646	374.64148	59.66260	476.71619	315.37692	29.44377	284.61758	366.33224	103.99998	362.00571	392.05374	504.35068	419.25308	469.43274	831.00555	421.82111	374.41565	926.34448	488.13840	318.16388	983.44318	250.31334	
1280	10.658	232.39752	88.19517	298.38449	133.14648	96.63218	264.86771	210.25177	205.82336	130.13304	144.19135	219.34932	240.43176	117.17125	496.07840	495.65567	91.36736	865.98077	385.52240	182.00827	922.57379	474.56448	242.90538	983.92822	246.03954	279.90448	58.13792	478.30435	374.38895	59.38774	467.67834	315.32446	29.86789	276.12570	366.00995	103.94593	353.15762	392.35550	504.02591	413.33557	469.77420	830.89929	419.47577	376.12750	926.88336	486.99078	317.12268	983.71179	248.87134	
1281	10.667	231.89249	85.29573	317.83878	132.68524	93.26591	285.42807	212.61079	194.10944	146.02428	144.93301	213.99841	255.15790	118.88294	498.96619	501.64600	91.44429	867.21039	386.16040	183.61371	923.61798	474.13229	241.66586	984.43420	244.90091	280.03104	57.92395	469.71240	374.55576	59.42651	458.72528	315.60324	30.44554	266.27286	365.69440	104.22113	344.58316	392.59091	503.58966	407.51932	470.18631	830.50146	417.54443	378.17804	926.92999	485.88922	316.38217	983.83551	247.59146	
1282	10.675	230.72708	82.67344	341.44800	131.90269	89.90498	306.46649	213.83073	182.21692	162.70500	145.94504	208.08794	270.48041	120.57324	501.85751	506.95377	91.43720	868.30304	386.71509	185.03328	924.15912	473.56125	240.93770	984.51172	243.90436	280.06644	57.85549	460.71176	373.81598	59.06799	449.81903	315.67282	30.61419	257.37018	365.35181	104.35150	335.68182	392.55276	503.12012	401.81750	470.29980	829.83679	415.06802	379.60608	927.02222	484.72992	315.76010	983.80225	246.13020	
1283	10.683	229.35710	80.06532	363.29492	131.42006	86.31310	328.11499	215.43890	169.94337	180.22531	146.86539	201.94640	286.35019	122.48679	504.30533	512.07349	91.71893	869.24457	387.38327	186.20294	924.86456	473.22205	240.05798	984.42712	243.01303	279.94986	57.57289	451.84875	374.17145	58.84275	440.90356	315.50290	30.84134	248.59096	365.17496	104.45740	327.07733	392.73383	502.59225	396.09375	470.41159	829.07068	412.53619	381.20407	926.96326	483.57785	315.05374	983.58929	244.68881	
1284	10.692	228.00529	77.78172	387.82675	130.72038	82.74138	350.11609	217.06587	157.41779	198.69501	147.52530	195.58951	302.72662	123.65469	506.50659	516.40680	91.60138	869.87500	387.70331	186.37804	926.00256	473.80322	239.24529	984.27026	242.01428	279.62320	57.75780	443.06168	374.26086	58.85437	432.11401	315.35199	30.93742	239.45613	364.76550	104.41710	318.30933	392.54120	501.79904	390.25473	470.37149	828.48553	409.88815	381.79373	927.12335	483.04956	314.21533	983.34814	243.33633	
